<svg width="110" height="110" viewBox="0 0 110 110" fill="none" xmlns="http://www.w3.org/2000/svg">
<path d="M83.4162 19.5723C79.9188 19.5723 77.0044 22.5002 77.0044 26.0137C77.0044 29.5272 79.9188 32.4551 83.4162 32.4551C86.9135 32.4551 89.8279 29.5272 89.8279 26.0137C89.8279 22.5002 87.0301 19.5723 83.4162 19.5723Z" fill="white"/>
<path d="M55.0879 27.7703C40.2825 27.7703 28.275 39.8333 28.275 54.7072C28.275 69.5811 40.2825 81.6441 55.0879 81.6441C69.8932 81.6441 81.9007 69.5811 81.9007 54.7072C81.9007 39.9504 69.8932 27.7703 55.0879 27.7703ZM55.0879 72.0405C45.6451 72.0405 37.8344 64.3108 37.8344 54.7072C37.8344 45.1036 45.5285 37.491 55.0879 37.491C64.5306 37.491 72.3413 45.2207 72.3413 54.8243C72.3413 64.4279 64.5306 72.0405 55.0879 72.0405Z" fill="white"/>
<path d="M76.3049 109.518H32.8215C14.752 109.518 0.0632324 94.7614 0.0632324 76.6083V32.9236C0.0632324 14.7704 14.752 0.0136719 32.8215 0.0136719H76.3049C94.3745 0.0136719 109.063 14.7704 109.063 32.9236V76.6083C109.063 94.7614 94.3745 109.518 76.3049 109.518ZM32.8215 10.32C20.4643 10.32 10.3221 20.5092 10.3221 32.9236V76.6083C10.3221 89.0227 20.4643 99.2119 32.8215 99.2119H76.3049C88.6622 99.2119 98.8044 89.0227 98.8044 76.6083V32.9236C98.8044 20.5092 88.6622 10.32 76.3049 10.32H32.8215Z" fill="white"/>
</svg>
