<svg width="95" height="124" viewBox="0 0 95 124" fill="none" xmlns="http://www.w3.org/2000/svg">
<path d="M47.3944 0.786621C21.6298 0.786621 0.486084 21.7879 0.486084 47.6894C0.486084 71.9108 38.8529 113.913 43.1936 118.674L47.2544 123.154L51.3151 118.674C55.6558 113.913 94.0226 71.9108 94.0226 47.6894C94.3027 21.7879 73.299 0.786621 47.3944 0.786621ZM47.3944 106.493C34.6521 91.932 11.8281 62.8103 11.8281 47.6894C11.8281 28.0882 27.7909 12.1273 47.3944 12.1273C66.9979 12.1273 82.9607 28.0882 82.9607 47.6894C83.1007 62.6703 60.2767 91.932 47.3944 106.493Z" fill="white"/>
<path d="M47.3948 23.748C35.3527 23.748 25.4109 33.5486 25.4109 45.7293C25.4109 57.7701 35.2126 67.7107 47.3948 67.7107C59.4369 67.7107 69.3787 57.9101 69.3787 45.7293C69.3787 33.5486 59.5769 23.748 47.3948 23.748ZM47.3948 56.37C41.5137 56.37 36.6129 51.6097 36.6129 45.5894C36.6129 39.709 41.3737 34.8087 47.3948 34.8087C53.2758 34.8087 58.1767 39.569 58.1767 45.5894C58.1767 51.6097 53.4159 56.37 47.3948 56.37Z" fill="white"/>
</svg>
