<svg width="85" height="86" viewBox="0 0 85 86" fill="none" xmlns="http://www.w3.org/2000/svg">
<path d="M46.3505 2.18708C51.6029 2.22425 56.6936 3.37643 61.4842 5.59407C66.1016 7.73738 70.2458 10.7851 73.8012 14.6505C77.3451 18.5159 80.1271 23.0007 82.0548 27.9935C84.0519 33.1597 85.0446 38.6357 84.9985 44.2851C84.9638 49.9221 83.8903 55.3857 81.824 60.5272C79.8269 65.4828 76.9872 69.9305 73.3856 73.7463C69.784 77.5497 65.6052 80.5355 60.9532 82.6045C56.1395 84.7478 51.0372 85.8132 45.7734 85.7637C40.5557 85.7265 35.4996 84.5991 30.7552 82.4062C26.1608 80.3001 22.0398 77.2896 18.4959 73.4861C18.392 73.3746 18.392 73.1764 18.4959 73.0649C18.5998 72.9534 18.7845 72.9534 18.8884 73.0649C26.0685 80.7957 35.615 85.0823 45.7849 85.169C66.9443 85.3301 84.2828 66.9942 84.4444 44.2851C84.5944 21.576 67.5099 2.96759 46.3505 2.79415C42.4604 2.76937 38.6164 3.35166 34.9224 4.55339C34.7723 4.60295 34.6223 4.51623 34.5761 4.35517C34.5299 4.19411 34.6107 4.03305 34.7608 3.9835C38.5125 2.75698 42.4026 2.16231 46.3505 2.18708Z" fill="black"/>
<path d="M22.1666 62.6828H20.7583V63.1536H22.1666V62.6828Z" fill="black"/>
<path d="M77.7145 62.9182H76.3062V63.389H77.7145V62.9182Z" fill="black"/>
<path d="M25.9298 63.6368V63.835C25.9298 64.8261 25.318 64.95 24.5446 64.95C23.1824 64.95 23.0901 64.3925 23.0901 63.0793C23.0901 61.9395 23.2748 61.3572 24.4638 61.3572C25.2487 61.3572 25.8721 61.4563 25.8721 62.4474V62.5466H25.3757V62.4351C25.3757 61.8032 25.0525 61.7908 24.4869 61.7908C23.6211 61.7908 23.598 62.1129 23.598 63.228C23.598 64.2191 23.6326 64.5164 24.5907 64.5164C25.2141 64.5164 25.4334 64.4421 25.4334 63.8102V63.6368H25.9298Z" fill="black"/>
<path d="M26.6224 61.4068H28.0653C28.8272 61.4068 29.3582 61.382 29.3582 62.274C29.3582 62.72 29.2889 63.0421 28.8387 63.0793V63.0917C29.312 63.1289 29.4159 63.3643 29.4159 63.8846C29.4159 64.9129 28.8734 64.9129 28.1692 64.9129H26.6108V61.4068H26.6224ZM28.1808 62.8687C28.6425 62.8687 28.8387 62.8563 28.8387 62.336C28.8387 61.8404 28.7695 61.828 27.9961 61.828H27.1072V62.8687H28.1808ZM27.1072 64.4793H28.2154C28.6771 64.4793 28.8965 64.504 28.8965 63.8722C28.8965 63.2899 28.631 63.3147 28.1692 63.3147H27.1072V64.4793Z" fill="black"/>
<path d="M32.3596 64.9129V64.5536L32.3481 64.5412C32.1634 64.95 31.6786 64.9624 31.2745 64.9624C30.5473 64.9624 30.0278 64.8138 30.0278 63.897C30.0278 62.9306 30.5011 62.7943 31.3092 62.7943C31.6324 62.7943 32.2673 62.8191 32.3365 63.1536H32.3596V62.5094C32.3596 61.8652 32.048 61.8156 31.4939 61.8156C31.1014 61.8156 30.6396 61.8156 30.6396 62.2988V62.4103H30.1317V62.3359C30.1317 61.4315 30.7089 61.382 31.4361 61.382C32.2557 61.382 32.856 61.4687 32.856 62.5342V64.9253H32.3596V64.9129ZM32.3481 63.8722C32.3481 63.2032 31.9902 63.2156 31.3553 63.2156C30.7666 63.2156 30.5357 63.2527 30.5357 63.8226C30.5357 64.4916 30.7897 64.5164 31.3553 64.5164C31.8517 64.5164 32.3481 64.5164 32.3481 63.8722Z" fill="black"/>
<path d="M33.7911 66.0898H33.2947V64.4792H33.641C33.8603 64.1819 34.0335 63.7235 34.0335 62.6333V61.4067H36.3884V64.4792H36.8039V66.0898H36.3076V64.9128H33.7795V66.0898H33.7911ZM35.9151 61.8404H34.5414V62.6333C34.5414 63.6616 34.3682 64.1819 34.2066 64.4792H35.9151V61.8404Z" fill="black"/>
<path d="M40.0591 63.8474V63.9713C40.0591 64.9005 39.3896 64.95 38.6623 64.95C37.3925 64.95 37.1963 64.4916 37.1963 63.166C37.1963 61.7041 37.4964 61.3696 38.6623 61.3696C39.7243 61.3696 40.0591 61.6298 40.0591 62.9182V63.2775H37.7042C37.7042 64.3925 37.7735 64.5288 38.6623 64.5288C39.3318 64.5288 39.5512 64.4916 39.5512 63.9837V63.8598H40.0591V63.8474ZM39.5512 62.8439C39.5281 61.8528 39.4127 61.7908 38.6623 61.7908C37.7735 61.7908 37.7388 62.0386 37.7042 62.8439H39.5512Z" fill="black"/>
<path d="M42.2294 61.3696C43.3722 61.3696 43.6031 61.6793 43.6031 63.166C43.6031 64.6403 43.3722 64.95 42.1602 64.95C40.9481 64.95 40.7288 64.6279 40.7288 63.166V61.3572C40.7288 60.2917 41.3059 60.205 42.1255 60.205C42.4257 60.205 42.7489 60.1802 42.8297 59.9077H43.3492C43.2568 60.5891 42.7373 60.6262 42.0794 60.6262C41.2598 60.6262 41.2136 60.874 41.2136 61.32V61.6917H41.2367C41.3406 61.4439 41.4675 61.3696 42.2294 61.3696ZM42.1602 64.5164C43.0375 64.5164 43.0952 64.3678 43.0952 63.166C43.0952 61.9395 43.0375 61.7908 42.1602 61.7908C41.3983 61.7908 41.2136 61.7908 41.2136 63.166C41.2251 64.3801 41.2829 64.5164 42.1602 64.5164Z" fill="black"/>
<path d="M46.6158 61.4067H47.1122V64.9128H46.6158V63.3147H44.8496V64.9128H44.3533V61.4067H44.8496V62.881H46.6158V61.4067Z" fill="black"/>
<path d="M47.9666 61.4067H48.4629V62.8191H49.4557C50.1367 62.8191 50.6447 62.881 50.6447 63.8598C50.6447 64.8385 50.1367 64.9252 49.4557 64.9252H47.9666V61.4067ZM48.4514 64.4792H49.271C49.6865 64.4792 50.1252 64.4668 50.1252 63.8846V63.7854C50.1252 63.1908 49.6404 63.2403 49.271 63.2403H48.4514V64.4792ZM51.5797 64.9128H51.0833V61.4067H51.5797V64.9128Z" fill="black"/>
<path d="M54.6963 64.9129V62.1129H54.6732L53.0225 64.9129H52.4453V61.4068H52.9417V64.2191H52.9648L54.6155 61.4068H55.1927V64.9129H54.6963ZM53.7959 60.9112C53.288 60.9112 52.9994 60.8369 52.884 60.3165H53.3457C53.415 60.5271 53.5304 60.5519 53.7959 60.5519C54.0729 60.5519 54.1768 60.5271 54.2461 60.3165H54.7309C54.5924 60.8369 54.2923 60.9112 53.7959 60.9112Z" fill="black"/>
<path d="M60.8954 63.6368V63.835C60.8954 64.8261 60.2836 64.95 59.5101 64.95C58.148 64.95 58.0557 64.3925 58.0557 63.0793C58.0557 61.9395 58.2404 61.3572 59.4293 61.3572C60.2143 61.3572 60.8377 61.4563 60.8377 62.4474V62.5466H60.3528V62.4351C60.3528 61.8032 60.0296 61.7908 59.464 61.7908C58.5982 61.7908 58.5751 62.1129 58.5751 63.228C58.5751 64.2191 58.6098 64.5164 59.5679 64.5164C60.1912 64.5164 60.4105 64.4421 60.4105 63.8102V63.6368H60.8954Z" fill="black"/>
<path d="M63.7813 64.9129V64.5536L63.7697 64.5412C63.585 64.95 63.1002 64.9624 62.6962 64.9624C61.9689 64.9624 61.4495 64.8138 61.4495 63.897C61.4495 62.9306 61.9227 62.7943 62.7308 62.7943C63.054 62.7943 63.6889 62.8191 63.7582 63.1536H63.7813V62.5094C63.7813 61.8652 63.4696 61.8156 62.9155 61.8156C62.523 61.8156 62.0613 61.8156 62.0613 62.2988V62.4103H61.5534V62.3359C61.5534 61.4315 62.1305 61.382 62.8578 61.382C63.6774 61.382 64.2776 61.4687 64.2776 62.5342V64.9253H63.7813V64.9129ZM63.7697 63.8722C63.7697 63.2032 63.4119 63.2156 62.777 63.2156C62.1883 63.2156 61.9574 63.2527 61.9574 63.8226C61.9574 64.4916 62.2113 64.5164 62.777 64.5164C63.2733 64.5164 63.7697 64.5164 63.7697 63.8722Z" fill="black"/>
<path d="M67.8677 64.9128H67.3713V61.8404H65.8822V63.9589C65.8822 64.5907 65.6975 64.9128 65.0742 64.9128H64.7971V64.4792H64.8433C65.305 64.4792 65.3974 64.3058 65.3974 63.7978V61.4067H67.8677V64.9128Z" fill="black"/>
<path d="M70.0724 61.3696C71.2845 61.3696 71.5154 61.6793 71.5154 63.166C71.5154 64.6403 71.2845 64.95 70.0724 64.95C68.8603 64.95 68.6179 64.6279 68.6179 63.166C68.6179 61.6793 68.8488 61.3696 70.0724 61.3696ZM70.0724 64.5164C70.9497 64.5164 71.0074 64.3678 71.0074 63.166C71.0074 61.9395 70.9497 61.7908 70.0724 61.7908C69.1951 61.7908 69.1258 61.9395 69.1258 63.166C69.1258 64.3801 69.1951 64.5164 70.0724 64.5164Z" fill="black"/>
<path d="M74.5167 61.4067H75.0131V64.9128H74.5167V63.3147H72.7505V64.9128H72.2542V61.4067H72.7505V62.881H74.5167V61.4067Z" fill="black"/>
<path d="M32.4866 5.37108C32.1172 4.65251 31.5631 4.05784 30.9744 3.53749C30.3857 3.00477 29.7392 2.54637 29.0582 2.14992C27.6498 1.31985 26.1145 0.737567 24.5446 0.390673C21.3586 -0.315503 17.8262 -0.055333 14.9288 1.64197C13.6936 2.36053 12.5393 3.46316 12.1583 4.96224C11.8467 6.18875 12.1584 7.58872 12.9895 8.49312C12.8971 8.65418 12.8163 8.84001 12.7471 9.01346C12.4585 9.80636 12.4931 10.7108 12.6663 11.5284C12.8279 12.3213 13.1511 13.0895 13.6013 13.7337C13.8206 14.0558 14.063 14.3531 14.3401 14.6257C14.4902 14.7744 14.7095 14.539 14.5594 14.3903C13.5089 13.362 12.8625 11.8877 12.851 10.3515C12.851 9.76919 12.9664 9.21169 13.2204 8.71612C13.255 8.7409 13.2896 8.77807 13.3243 8.80285C14.3285 9.62052 15.8408 9.55858 16.7989 8.69134C17.2375 8.29489 17.63 7.62589 17.4338 6.99404C17.2029 6.23831 16.291 6.41176 15.7253 6.53565C14.7441 6.74626 13.786 7.31616 13.1857 8.171C12.4585 7.32855 12.2392 6.04009 12.5508 4.94985C12.9433 3.58705 14.04 2.6207 15.1712 1.96408C17.8032 0.44023 21.0238 0.142892 23.9444 0.663233C26.7725 1.17118 29.6123 2.42248 31.6439 4.64012C31.8863 4.91268 32.1288 5.18524 32.3712 5.44541C32.4404 5.50736 32.5212 5.43302 32.4866 5.37108ZM13.4743 8.30728C13.8553 7.78694 14.3747 7.40288 14.9404 7.14271C15.2289 7.00643 15.5291 6.90732 15.8408 6.84537C16.1409 6.77104 16.5218 6.69671 16.8335 6.78343C17.1567 6.87015 17.2144 7.22944 17.1452 7.53916C17.0759 7.84889 16.9028 8.10906 16.695 8.33206C15.8638 9.1993 14.4324 9.24885 13.5205 8.50551C13.4859 8.46834 13.4512 8.43117 13.4166 8.39401C13.4397 8.36923 13.4512 8.33206 13.4743 8.30728Z" fill="black"/>
<path d="M27.419 17.0168C27.4305 17.0044 27.419 16.9796 27.3959 16.9796C26.1146 16.8805 24.7755 16.323 23.6212 15.7407C23.044 15.4434 22.4668 15.1337 21.8781 14.8611C21.3355 14.6009 20.7353 14.2664 20.1235 14.3036C19.5347 14.3408 19.0037 14.7 18.7036 15.2452C18.6574 15.3195 18.542 16.2982 18.415 16.7319C18.2649 17.2274 18.0802 17.6982 17.8032 18.1318C17.5608 18.5035 17.2491 18.838 16.8797 19.0858C16.5334 19.3212 16.1756 19.4203 15.7946 19.4946C15.7369 19.4451 15.6792 19.3955 15.6215 19.3459C15.506 19.2468 15.4021 19.1353 15.2982 19.0362C15.1713 18.9123 15.0443 18.8008 14.9058 18.6893C14.8365 18.6274 14.7326 18.7017 14.7788 18.7884C14.848 18.9247 14.9058 19.0362 14.9981 19.1601C15.0905 19.284 15.1944 19.3955 15.2982 19.507C15.506 19.73 15.7254 19.9282 15.9562 20.1264C16.6142 20.6716 17.4107 21.1052 17.4107 21.1052C19.0384 21.9972 19.858 22.4308 20.2966 22.5671C20.5967 22.6538 21.7742 22.9759 23.1941 22.7777C25.6759 22.4184 27.2805 20.7087 27.823 20.0769C26.9457 20.6592 23.7712 22.6414 21.1162 22.0591C20.7353 21.9724 20.0427 21.7618 19.3731 21.5264C18.3227 21.1424 17.3068 20.6468 16.3833 19.9778C16.2679 19.8911 16.1525 19.8043 16.037 19.7176C16.7874 19.6061 17.5031 18.999 17.9302 18.3796C18.2303 17.946 18.4496 17.438 18.6112 16.9177C18.7498 16.4593 18.9229 15.3938 18.9229 15.3938C19.2577 15.3938 19.5578 15.6044 19.8464 15.7779C20.135 15.9513 20.412 16.1124 20.7006 16.2858C21.2778 16.6327 21.855 16.9796 22.4553 17.277C23.2633 17.6734 24.4638 18.2681 25.8029 17.946C26.1608 17.8221 26.761 17.6115 27.419 17.0168ZM24.1175 17.5371C22.8824 17.2646 21.7973 16.5708 20.6891 15.9513C20.389 15.7903 20.1004 15.6292 19.7887 15.4806C19.5232 15.3567 19.2577 15.2452 18.9691 15.2699C19.2577 14.8239 19.7425 14.539 20.262 14.539C20.5852 14.5514 20.9084 14.6753 21.2086 14.7992C21.4971 14.923 21.7857 15.0593 22.0628 15.1956C23.1363 15.7159 24.1868 16.3106 25.3181 16.6699C25.9068 16.8557 26.634 17.0292 27.2574 17.0292C26.7841 17.277 26.3339 17.5124 25.8029 17.6115C25.2488 17.7106 24.6716 17.661 24.1175 17.5371Z" fill="black"/>
<path d="M54.6388 37.1986C54.2579 36.8888 53.8308 36.6535 53.3344 36.4924C52.838 36.3313 52.3186 36.257 51.776 36.257C51.2104 36.257 50.6101 36.3437 49.9983 36.5296C49.3865 36.7154 48.7631 37.0251 48.1513 37.4711C47.401 38.0163 46.7776 38.5366 46.3044 39.0322C45.8195 39.5277 45.3924 40.0109 45.023 40.4817C44.6536 40.9525 44.2958 41.4232 43.9379 41.8816C43.5801 42.3524 43.153 42.8108 42.6566 43.2816C42.3103 42.8108 42.0101 42.1914 41.7331 41.448C41.4561 40.6923 41.3175 39.8251 41.3175 38.8587C41.3175 38.0782 41.433 37.2605 41.6638 36.3933C41.8947 35.526 42.2757 34.6093 42.8182 33.6553C43.3723 33.8411 43.9379 33.9774 44.5036 34.0518C45.0692 34.1385 45.6579 34.1756 46.2466 34.1756C47.3202 34.1756 48.4053 34.0394 49.4788 33.7792C50.5524 33.5066 51.5913 33.1474 52.561 32.689C53.5422 32.2306 54.4541 31.6978 55.2968 31.1032C56.1395 30.4961 56.8783 29.8643 57.4901 29.1829C58.1019 28.5015 58.5983 27.8077 58.9446 27.1015C59.3024 26.3953 59.4756 25.7015 59.4756 25.0325C59.4756 24.4998 59.3717 24.029 59.1755 23.6202C58.9792 23.2113 58.7022 22.8644 58.3559 22.5919C58.0096 22.3193 57.594 22.1087 57.0976 21.9724C56.6128 21.8361 56.0818 21.7618 55.5161 21.7618C54.7774 21.7618 54.0039 21.8857 53.2074 22.1335C52.4109 22.3813 51.6721 22.7653 51.0141 23.2857C50.3562 23.806 49.8136 24.4874 49.3865 25.3175C48.9594 26.1475 48.7516 27.151 48.7516 28.328C48.7516 28.4519 48.7516 28.5758 48.7516 28.7121C48.7516 28.836 48.7631 28.9598 48.7747 29.0837C48.2899 29.0837 47.7704 29.1333 47.2048 29.2324C46.6391 29.3315 46.0735 29.5297 45.4848 29.8147C44.896 30.0996 44.2958 30.4961 43.6955 31.004C43.0952 31.512 42.5181 32.1686 41.964 32.9863C41.5253 32.8376 41.0289 32.5651 40.4749 32.181C39.9208 31.7969 39.4013 31.289 38.9049 30.6571C38.4201 30.0377 38.0045 29.282 37.6698 28.3899C37.335 27.5103 37.1734 26.482 37.1734 25.3299C37.1734 24.3883 37.3696 23.4715 37.7506 22.5795C38.1315 21.6875 38.6741 20.8822 39.3667 20.1636C40.0593 19.445 40.8904 18.8504 41.8716 18.3796C42.8413 17.9088 43.9148 17.6239 45.0807 17.5124C44.6652 17.5124 44.1803 17.5743 43.6147 17.7106C43.0491 17.8345 42.4604 18.0327 41.8716 18.3053C41.2714 18.5778 40.6826 18.9123 40.0939 19.3335C39.5052 19.7548 38.9742 20.2503 38.5124 20.845C38.0392 21.4273 37.6698 22.1087 37.3812 22.8644C37.0926 23.6326 36.9541 24.475 36.9541 25.429C36.9541 26.7546 37.1388 27.882 37.4966 28.8112C37.8545 29.7404 38.2931 30.5085 38.801 31.1032C39.309 31.7102 39.8515 32.1686 40.4056 32.5031C40.9712 32.8376 41.433 33.0854 41.8255 33.2341C41.1906 34.3367 40.7288 35.365 40.4518 36.3313C40.1747 37.2977 40.0362 38.2021 40.0362 39.0445C40.0362 40.1472 40.2209 41.1011 40.6018 41.9188C40.9828 42.7365 41.433 43.3807 41.9755 43.8763C41.1906 44.5577 40.3363 45.1647 39.3898 45.6727C38.4894 46.1559 37.5543 46.5647 36.5847 46.8992C37.1965 45.1771 37.589 43.3559 37.7737 41.5224C38.12 37.9543 37.612 34.3367 36.6308 30.9173C35.6035 27.3493 34.0682 24.0166 32.3828 20.7707C31.5517 19.1601 30.709 17.5124 30.2242 15.7283C29.7278 13.9319 29.7047 12.0859 30.2126 10.2771C30.6974 8.56746 31.5401 7.00643 32.4521 5.51975C32.556 5.3463 32.3828 5.19763 32.2327 5.2348C31.2054 4.81357 30.0972 4.62773 29.0121 4.59057C27.8346 4.54101 26.6918 4.67729 25.5836 4.97463C24.487 5.27197 23.425 5.74275 22.4553 6.34981C21.3933 7.01882 20.4698 7.87367 19.6271 8.84001C18.7498 9.83114 17.9302 10.8718 17.0298 11.8382C16.1756 12.755 15.2868 13.6222 14.3286 14.3903C12.447 15.9142 10.3115 17.1283 7.97967 17.5619C7.67954 17.6239 7.3794 17.6486 7.07927 17.6858C6.82531 17.7106 6.55981 17.7601 6.36357 17.946C6.15579 18.1442 6.08652 18.4291 6.06344 18.7141C6.02881 19.0486 6.04035 19.3831 6.04035 19.7176C6.08652 21.1176 6.37511 22.4928 6.88303 23.7812C6.98692 24.0538 7.1139 24.3139 7.24088 24.5741C6.45592 25.4166 5.34773 25.8502 4.23955 25.7263C4.13566 25.7139 4.0664 25.8254 4.05485 25.9245C3.99714 26.7918 4.07794 27.659 4.28572 28.5015C4.00868 28.4519 3.74318 28.3156 3.46613 28.2784C3.17754 28.2413 2.88895 28.3156 2.63499 28.4519C2.06936 28.7616 1.68842 29.3811 1.59607 30.0501C1.48063 30.8678 1.71151 31.673 2.01164 32.4164C2.28869 33.1102 2.58882 33.804 2.39258 34.5721C2.38103 34.634 2.35795 34.696 2.33486 34.7579C2.28869 34.7579 2.25405 34.7827 2.24251 34.8323C2.23097 34.9438 2.19634 35.0553 2.15016 35.1544C1.8962 35.6128 1.50372 35.9844 1.04198 36.1827C0.972717 36.2198 0.972717 36.2942 1.01889 36.3437C0.568692 36.703 0.153123 37.1366 0.0376869 37.7437C-0.250903 39.2799 1.1805 40.5932 2.19634 41.3985C4.88599 43.5542 7.87578 45.4249 11.1888 46.2302C14.1439 46.9488 17.3877 46.7505 20.112 45.2515C20.3198 45.14 20.516 45.0161 20.7122 44.8922C20.9085 45.0904 21.1163 45.2762 21.3356 45.4497C21.3471 45.4745 21.3587 45.4869 21.3702 45.5116C21.1163 48.4974 20.8508 51.4832 20.5968 54.4689C20.5506 55.0388 20.3775 57.083 20.3313 57.6529C20.1697 57.6653 20.0081 57.6777 19.8465 57.6901C18.1842 57.8016 16.5219 57.8264 14.8827 58.0865C13.3474 58.3343 11.8006 58.7803 10.4962 59.7095C9.37644 60.5148 8.40678 61.6174 7.87578 62.9554C7.36786 64.2315 7.32169 65.6562 7.84115 66.9323C8.34907 68.1836 9.35336 69.1995 10.5423 69.6827C13.3128 70.7977 16.0717 68.642 17.6532 66.3624C18.6229 64.9748 19.3616 63.4014 19.8696 61.7537C20.239 60.5272 20.4583 59.2511 20.6083 57.975C23.2865 57.7644 25.9646 57.3432 28.4464 56.2282C31.1707 55.0016 33.4333 52.9327 35.0263 50.2566C35.6035 49.2903 36.0883 48.262 36.4923 47.1965C36.8617 47.0727 37.208 46.9364 37.5543 46.8001C38.6625 46.3541 39.6206 45.8709 40.4402 45.3754C41.2598 44.8674 41.8601 44.4214 42.241 44.0249C43.0606 44.694 43.961 45.1771 44.9422 45.4497C45.9234 45.7346 46.9046 45.8709 47.8974 45.8709C48.9594 45.8709 49.9752 45.747 50.9449 45.4992C51.9145 45.2515 52.7572 44.8798 53.496 44.3966C54.2348 43.9134 54.8235 43.294 55.2622 42.563C55.7008 41.8321 55.9202 40.9896 55.9202 40.0233C55.9202 39.4038 55.8047 38.8463 55.5739 38.3755C55.3199 37.9047 55.0198 37.5083 54.6388 37.1986ZM44.4689 31.4996C45.0115 30.9917 45.5425 30.5704 46.0735 30.2483C46.6045 29.9262 47.1124 29.6908 47.5972 29.5545C48.0821 29.4059 48.4976 29.3315 48.8555 29.3191C48.994 29.8271 49.2364 30.1988 49.5712 30.4589C49.906 30.7191 50.2292 30.843 50.5409 30.843C50.6794 30.843 50.841 30.8058 51.0141 30.7315C51.1873 30.6572 51.2681 30.5333 51.2681 30.3598C51.2681 30.2483 51.2335 30.1244 51.1527 29.9881C51.0719 29.8395 50.9564 29.7032 50.7948 29.5669C50.6332 29.4306 50.4139 29.3067 50.1484 29.2076C49.8829 29.1085 49.5481 29.059 49.1672 29.059C49.1672 27.8448 49.3865 26.8042 49.8367 25.9369C50.2869 25.0821 50.8525 24.3759 51.5336 23.8184C52.2147 23.2733 52.9535 22.8644 53.75 22.6043C54.5465 22.3441 55.2968 22.2202 56.0125 22.2202C56.9591 22.2202 57.7441 22.4432 58.3443 22.8892C58.9446 23.3352 59.2447 24.0414 59.2447 25.0077C59.2447 25.6272 59.0716 26.2838 58.7368 26.9652C58.3905 27.6466 57.9287 28.3156 57.3169 28.9598C56.7167 29.6165 56.001 30.2359 55.1814 30.8182C54.3618 31.4005 53.4614 31.9208 52.5033 32.3668C51.5336 32.8128 50.5178 33.1721 49.4558 33.4323C48.3937 33.6925 47.3087 33.8164 46.2236 33.8164C45.681 33.8164 45.15 33.7792 44.6075 33.7172C44.0649 33.6429 43.5339 33.5314 42.9914 33.358C43.43 32.6394 43.9379 32.0199 44.4689 31.4996ZM49.1556 29.3191C49.4211 29.3191 49.6751 29.3439 49.906 29.4059C50.1368 29.4678 50.3446 29.5421 50.5178 29.6412C50.6909 29.7404 50.8294 29.8519 50.9333 29.9757C51.0372 30.0996 51.0834 30.2111 51.0834 30.3226C51.0372 30.5333 50.8872 30.6448 50.6332 30.6448C50.3792 30.6448 50.0907 30.5333 49.779 30.3103C49.4788 30.0996 49.2711 29.7651 49.1556 29.3191ZM19.8696 60.4157C19.4655 62.2492 18.7614 63.9961 17.7802 65.5695C16.1756 68.1464 13.0819 70.872 10.0806 69.1499C8.81081 68.419 7.85269 67.019 7.72571 65.458C7.59873 63.8598 8.26826 62.336 9.27255 61.1962C11.6505 58.4706 15.2868 58.26 18.5536 58.0989C19.1308 58.0741 19.6964 58.037 20.2736 57.9998C20.1697 58.8051 20.0427 59.6104 19.8696 60.4157ZM4.4127 26.1599C4.58586 26.2219 4.81673 26.1723 4.88599 26.1723C4.88599 26.1723 5.08223 26.1475 5.53243 26.4077C6.09807 26.7298 6.23659 28.1793 6.32894 28.836C6.44437 29.6289 6.73296 30.7067 7.47175 31.9456C6.83686 31.4129 6.32894 30.9173 5.948 30.5333C5.48626 30.0625 5.25539 29.7775 5.03606 29.3811C4.82827 29.0218 4.71284 28.6873 4.64358 28.4519C4.45888 27.7086 4.37807 26.9404 4.4127 26.1599ZM2.31177 32.0695C2.20788 31.7969 2.10399 31.512 2.04627 31.227C1.88466 30.4837 1.94238 29.666 2.47338 29.1085C2.70425 28.8607 3.01593 28.6873 3.35069 28.6997C3.70855 28.7121 4.03177 28.8979 4.37807 28.9227C4.50505 29.1828 4.60895 29.3811 4.60895 29.3811C5.45163 30.5085 5.33619 30.397 5.50934 30.5828C5.89028 31.004 6.42129 31.5616 7.1139 32.2058C6.05189 32.5898 5.18612 32.627 4.56277 32.5651C3.67392 32.4907 2.77352 32.1934 2.31177 32.0695ZM20.3082 44.6444C18.9922 45.4497 17.5031 45.9329 15.9909 46.1187C12.8164 46.5028 9.66503 45.6107 6.8484 44.0745C5.39391 43.2816 4.00868 42.3276 2.69271 41.2994C2.03473 40.779 1.37674 40.2711 0.868825 39.5649C0.441712 38.9702 0.0838612 38.1649 0.418625 37.4216C0.66104 36.8765 1.14587 36.542 1.58453 36.1703C2.48493 35.7119 2.9813 34.5349 2.77352 33.4819C2.70425 33.1226 2.57727 32.7881 2.43875 32.4412C3.13137 32.9243 3.62774 33.0358 3.62774 33.0358C4.17029 33.1597 4.62049 33.135 5.47471 33.073C6.60599 32.9987 6.65216 32.8872 7.80652 32.8005C8.81081 32.7261 9.0994 32.7385 9.11094 32.6642C9.13403 32.5527 8.59148 32.5031 8.14128 32.1934C7.47175 31.735 7.36786 30.9297 6.55981 27.8944C6.31739 26.99 6.07498 26.098 5.60169 25.9989C6.34048 25.7882 7.0331 25.3546 7.55256 24.7476C7.61028 24.6856 7.62182 24.5989 7.57565 24.5246C6.96384 23.3104 6.57135 21.9724 6.42129 20.6096C6.38666 20.2627 6.36357 19.9282 6.35203 19.5813C6.34048 19.2592 6.32894 18.9247 6.37511 18.615C6.43283 18.2557 6.64062 18.0946 6.97538 18.0451C7.25243 17.9955 7.54102 17.9831 7.8296 17.9336C10.0691 17.5619 12.1584 16.4717 13.9823 15.0717C15.9101 13.5974 17.5493 11.7762 19.1192 9.89308C19.9504 8.88957 20.8161 7.91084 21.8435 7.14271C22.7555 6.46132 23.7713 5.9162 24.8218 5.53214C26.9573 4.7764 29.2199 4.67729 31.4016 5.21002C31.6094 5.25958 31.8172 5.32152 32.025 5.37108C31.1361 6.83299 30.3165 8.38162 29.8432 10.0541C29.3699 11.6895 29.3007 13.3992 29.6585 15.0593C30.0164 16.7442 30.7321 18.3176 31.4824 19.8291C32.2789 21.4025 33.11 22.9635 33.8488 24.5741C36.677 30.7439 38.5355 37.8428 36.8502 44.6816C36.6539 45.4745 36.4115 46.255 36.1345 47.0107C35.1994 47.308 34.2298 47.5434 33.2486 47.6921C32.175 47.8655 31.1246 47.9399 30.0856 47.9399C28.5619 47.9399 27.0843 47.7169 25.6413 47.2833C24.1984 46.8373 22.9171 46.193 21.7858 45.3382C20.6545 44.4833 19.7541 43.4303 19.0615 42.1666C18.3689 40.9029 18.0341 39.441 18.0341 37.8056C18.0341 36.2942 18.3227 34.9066 18.9114 33.6429C19.4886 32.3792 20.2736 31.3014 21.2548 30.397C22.236 29.4926 23.3673 28.7988 24.6486 28.2908C25.9299 27.7829 27.2805 27.5351 28.6889 27.5351C29.6239 27.5351 30.5474 27.6962 31.4593 28.0183C32.3713 28.3404 33.1793 28.7988 33.8835 29.4059C34.5876 30.0129 35.1648 30.7439 35.6035 31.5987C36.0421 32.4536 36.2614 33.4323 36.2614 34.5101C36.2614 35.5632 36.0537 36.5172 35.6496 37.3844C35.2456 38.2393 34.7262 38.9826 34.0797 39.6021C33.4333 40.2215 32.7176 40.6923 31.9211 41.0268C31.1246 41.3613 30.328 41.5347 29.5431 41.5347C28.9774 41.5347 28.3772 41.448 27.7423 41.2746C27.1074 41.1011 26.5302 40.8286 25.9992 40.4693C25.4682 40.11 25.0295 39.664 24.6832 39.1065C24.3369 38.5614 24.1638 37.9171 24.1638 37.1862C24.1638 36.5667 24.2446 36.0216 24.4177 35.5632C24.5909 35.1048 24.8102 34.7208 25.0873 34.3986C25.3643 34.0765 25.6644 33.8164 25.9992 33.6057C26.334 33.3951 26.6687 33.2341 27.0035 33.1102C27.3383 32.9863 27.6499 32.8996 27.9501 32.8624C28.2502 32.8128 28.4926 32.7881 28.6773 32.7757H28.3772C27.6615 32.7757 27.0381 32.8996 26.484 33.1473C25.9299 33.3951 25.4567 33.7296 25.0757 34.1385C24.6948 34.5473 24.4062 35.0181 24.1984 35.5384C24.0022 36.0588 23.8983 36.6039 23.8983 37.1738C23.8983 37.9543 24.0714 38.6233 24.4062 39.2056C24.7525 39.7879 25.1911 40.2711 25.7222 40.6551C26.2647 41.0392 26.865 41.3365 27.546 41.5347C28.2156 41.733 28.8851 41.8321 29.5546 41.8321C30.5358 41.8321 31.4593 41.6339 32.3251 41.2498C33.1909 40.8657 33.9412 40.3454 34.5876 39.7012C35.2341 39.0569 35.7535 38.3012 36.1345 37.434C36.5154 36.5791 36.7116 35.6623 36.7116 34.7084C36.7116 33.5562 36.4923 32.5155 36.0421 31.5863C35.5919 30.6695 35.0032 29.889 34.2529 29.2448C33.5025 28.6006 32.6483 28.1174 31.6671 27.7829C30.6859 27.4484 29.6701 27.2749 28.6196 27.2749C27.0958 27.2749 25.676 27.5475 24.3485 28.0926C23.021 28.6377 21.8666 29.3935 20.8739 30.3598C19.8926 31.3138 19.1077 32.4412 18.5305 33.7296C17.9533 35.0181 17.6647 36.4057 17.6647 37.88C17.6647 39.0074 17.8263 40.0481 18.1611 41.0144C18.4959 41.9684 18.9461 42.848 19.5233 43.6161C19.7772 43.9506 20.0427 44.2727 20.3313 44.5825C20.3775 44.6072 20.3428 44.632 20.3082 44.6444ZM32.8792 52.5486C30.6744 54.9893 27.7654 56.3644 24.6948 57.0335C23.3442 57.3308 21.9705 57.5042 20.5968 57.6157C20.643 57.1326 20.6892 56.637 20.7353 56.1538C21.0585 52.6725 21.3471 49.1788 21.6011 45.6851C22.3745 46.2798 23.2057 46.7753 24.1061 47.1718C24.9949 47.5682 25.9299 47.8656 26.8881 48.0762C27.8462 48.2868 28.8043 48.3859 29.7509 48.3859C31.1592 48.3859 32.5213 48.2372 33.8488 47.9275C34.6107 47.754 35.3495 47.5558 36.0421 47.3204C35.2918 49.2531 34.2413 51.0495 32.8792 52.5486ZM54.8004 42.6002C54.3502 43.2692 53.7731 43.8267 53.0804 44.2603C52.3878 44.694 51.6029 45.0161 50.7256 45.2143C49.8482 45.4249 48.9709 45.524 48.0705 45.524C47.0431 45.524 46.0735 45.363 45.1269 45.0408C44.1803 44.7187 43.4185 44.2232 42.8067 43.5294C43.2799 43.0586 43.7186 42.563 44.1342 42.0303C44.5497 41.51 44.9768 40.9896 45.404 40.4817C45.8311 39.9737 46.2697 39.4782 46.7315 39.0074C47.1932 38.5366 47.6896 38.103 48.2321 37.7065C48.7862 37.3101 49.375 37.0127 49.9868 36.8145C50.5986 36.6163 51.1988 36.5172 51.7876 36.5172C52.965 36.5172 53.877 36.8393 54.5118 37.4711C55.1467 38.103 55.5046 39.0198 55.5739 40.1967C55.5161 41.1259 55.2506 41.9312 54.8004 42.6002Z" fill="black"/>
<path d="M73.7087 41.7082C73.5933 41.8445 73.3855 42.117 73.0854 42.5259C72.7852 42.9347 72.4158 43.3683 72.0003 43.8143C71.5847 44.2603 71.123 44.6568 70.6266 45.0037C70.1302 45.3506 69.6454 45.524 69.1605 45.524C68.9643 45.524 68.8027 45.4992 68.6873 45.4497C68.5718 45.4001 68.5141 45.2638 68.5141 45.0532C68.5141 44.9293 68.5372 44.8054 68.5718 44.6692C68.6065 44.5329 68.6642 44.3842 68.7565 44.2108C69.1144 43.5541 69.5415 42.8108 70.0379 41.956C70.5342 41.1135 71.0191 40.2834 71.4923 39.4658C71.9656 38.6481 72.4043 37.8924 72.8083 37.1986C73.2123 36.5048 73.5125 35.9844 73.7087 35.6375H72.6236L72.0118 36.7154C71.8964 36.3066 71.7463 36.0216 71.5501 35.8729C71.3538 35.7243 71.146 35.6499 70.9267 35.6499C70.4881 35.6499 70.0032 35.7738 69.4838 36.034C68.9528 36.2942 68.4333 36.6411 67.9138 37.0623C67.3944 37.4835 66.8865 37.9791 66.4016 38.549C65.9168 39.1189 65.4781 39.7012 65.1087 40.3206C64.7393 40.9401 64.4392 41.5595 64.2199 42.1914C64.0121 42.7736 63.8967 43.3312 63.8851 43.8515C63.4926 44.1736 63.0424 44.4586 62.5461 44.6939C61.7842 45.0656 60.8953 45.2886 59.9026 45.3753C60.4798 44.9665 61.0223 44.4709 61.5187 43.8763C62.0151 43.294 62.4422 42.6621 62.8116 42.0055C63.1694 41.3489 63.458 40.6675 63.6543 39.9985C63.8505 39.3171 63.9544 38.6976 63.9544 38.1154C63.9544 37.5578 63.8274 37.1118 63.585 36.8021C63.331 36.4924 63.0309 36.3313 62.6615 36.3313C62.4653 36.3313 62.269 36.3809 62.0612 36.4676C61.865 36.5543 61.6688 36.703 61.461 36.9012L62.4653 35.2287C63.5273 34.4358 64.5893 33.5438 65.6628 32.5527C66.7248 31.5615 67.7176 30.5333 68.618 29.4554C69.5299 28.3776 70.3264 27.2873 71.0191 26.1599C71.7117 25.0449 72.2196 23.9671 72.5428 22.9264C72.6005 22.7529 72.6352 22.6043 72.6467 22.4804C72.6583 22.3565 72.6698 22.2202 72.6698 22.1087C72.6698 21.8237 72.6005 21.6131 72.4736 21.4769C72.3466 21.353 72.1734 21.2786 71.9656 21.2786C71.6655 21.2786 71.3077 21.3901 70.8921 21.6131C70.4765 21.8361 70.0379 22.1335 69.5761 22.5299C69.1144 22.914 68.6526 23.3724 68.1793 23.8927C67.7061 24.4131 67.2905 24.9706 66.898 25.59C66.3901 26.4077 65.9053 27.1882 65.4551 27.9192C65.0049 28.6501 64.5777 29.3687 64.1622 30.0749C63.7466 30.781 63.331 31.4996 62.9155 32.2182C62.4999 32.9367 62.0612 33.7049 61.611 34.4978C61.1608 35.303 60.6645 36.1579 60.1335 37.0747C59.6025 37.9915 59.0137 39.0198 58.3788 40.1224C57.8825 40.9896 57.49 41.7577 57.2129 42.4144C56.9359 43.071 56.7974 43.6657 56.7974 44.1612C56.7974 44.7435 56.9821 45.1647 57.3399 45.4249C57.6978 45.6975 58.1133 45.8214 58.5866 45.8214C59.1061 45.8214 59.6717 45.7594 60.272 45.6479C60.8722 45.5364 61.4379 45.3753 61.992 45.1523C62.5461 44.9417 63.054 44.6939 63.5273 44.3966C63.6543 44.3099 63.7812 44.2355 63.8967 44.1488C63.9082 44.2727 63.9198 44.409 63.9428 44.5453C63.9775 44.7683 64.0352 44.9665 64.1275 45.1523C64.2083 45.3382 64.3353 45.4868 64.4738 45.6231C64.6239 45.747 64.8086 45.8214 65.0395 45.8214C65.3627 45.8214 65.6628 45.7594 65.9399 45.6479C66.2169 45.5364 66.4709 45.3877 66.6902 45.2143C66.9211 45.0408 67.1289 44.8426 67.3136 44.632C67.5098 44.4214 67.683 44.2108 67.833 43.9878C67.7753 44.1117 67.7176 44.2355 67.6714 44.3718C67.6252 44.5081 67.6022 44.6568 67.6022 44.8302C67.6022 45.078 67.6945 45.301 67.8792 45.524C68.0639 45.747 68.341 45.8585 68.7103 45.8585C69.3106 45.8585 69.8647 45.7098 70.3726 45.4001C70.8805 45.0904 71.3538 44.7311 71.7809 44.2975C72.2081 43.8639 72.589 43.4055 72.9468 42.9347C73.2931 42.4639 73.6048 42.0675 73.8703 41.7453C73.8588 41.7453 73.8126 41.7206 73.7087 41.7082ZM63.5965 33.2093C63.9428 32.6146 64.3122 31.958 64.7278 31.2394C65.1434 30.5209 65.582 29.7651 66.0438 28.9722C66.5171 28.1793 66.9904 27.3988 67.4752 26.6307C67.96 25.8626 68.4333 25.1316 68.9181 24.4502C69.3914 23.7688 69.8532 23.1742 70.2918 22.6662C70.7189 22.183 71.0768 21.8485 71.3769 21.6751C71.677 21.5016 71.8964 21.4149 72.058 21.4149C72.185 21.4149 72.2773 21.4645 72.3235 21.5636C72.3697 21.6627 72.3927 21.7866 72.3927 21.9229C72.3927 22.1954 72.335 22.4804 72.2196 22.7653C71.8387 23.6945 71.3538 24.6608 70.7651 25.6644C70.1764 26.6679 69.4953 27.6838 68.7103 28.6873C67.9254 29.7032 67.0365 30.7191 66.0438 31.7226C65.051 32.7385 63.9544 33.7049 62.7654 34.634C62.9732 34.2747 63.2502 33.804 63.5965 33.2093ZM58.5289 45.1523C58.2865 45.1523 58.0902 45.0904 57.9286 44.9665C57.7786 44.855 57.6978 44.6196 57.6978 44.2727C57.6978 43.9878 57.767 43.5418 57.9171 42.9471C58.0672 42.3524 58.4366 41.6091 59.0368 40.7047L60.9069 37.8676C61.1955 37.4463 61.4841 37.1366 61.7842 36.9384C62.0843 36.7526 62.3498 36.6534 62.5922 36.6534C62.8924 36.6534 63.1348 36.7773 63.331 37.0375C63.5273 37.2977 63.6196 37.657 63.6196 38.1401C63.5504 38.7348 63.4118 39.3543 63.2156 39.9985C63.0194 40.6427 62.7539 41.2746 62.4191 41.8692C62.0843 42.4763 61.6803 43.0338 61.2186 43.5665C60.7453 44.0869 60.2143 44.5205 59.6025 44.855C59.2446 45.0532 58.8983 45.1523 58.5289 45.1523ZM67.5329 44.0249C67.302 44.3099 67.0712 44.5577 66.8172 44.7931C66.5632 45.0161 66.3093 45.2143 66.0438 45.3506C65.7783 45.4992 65.5012 45.5736 65.2126 45.5736C65.0164 45.5736 64.8779 45.4992 64.8086 45.3382C64.7393 45.1771 64.7047 45.0037 64.7047 44.8054C64.7047 44.4214 64.8086 43.9382 65.0164 43.3435C65.2242 42.7489 65.5012 42.117 65.8475 41.4604C66.1938 40.8038 66.5863 40.1348 67.025 39.4782C67.4636 38.8215 67.9138 38.2145 68.3756 37.6693C68.8373 37.1242 69.2875 36.6906 69.7377 36.3561C70.1879 36.0216 70.5804 35.8482 70.9383 35.8482C71.1691 35.8482 71.3423 35.9225 71.4808 36.0836C71.6193 36.2446 71.6886 36.48 71.6886 36.8021C71.6886 36.8888 71.6655 37.0127 71.6193 37.149C71.5732 37.2853 71.527 37.4216 71.5039 37.5331C71.4577 37.6074 71.3654 37.7809 71.2153 38.0534C71.0652 38.326 70.8805 38.6605 70.6612 39.0321C70.4419 39.4162 70.1995 39.825 69.9455 40.2587C69.6915 40.6923 69.4491 41.1135 69.2067 41.51C68.9758 41.9064 68.7681 42.2533 68.5834 42.563C68.3987 42.8728 68.2601 43.0834 68.1793 43.2073C67.9716 43.4674 67.7638 43.74 67.5329 44.0249Z" fill="black"/>
</svg>
