<svg width="114" height="113" viewBox="0 0 114 113" fill="none" xmlns="http://www.w3.org/2000/svg">
<path d="M110.963 84.5783L79.3173 52.9364L58.7336 73.5177L39.5502 54.4765L60.2739 33.8953L28.6283 2.25343C27.088 0.853352 25.1277 -0.126706 23.1673 0.0133019C21.067 0.0133019 19.1066 0.853352 17.7064 2.39344C-6.51791 28.435 -5.81779 68.4774 19.3867 93.6788C32.269 106.56 49.0719 113 66.0149 113C81.9778 113 98.0806 107.12 110.823 95.3589C112.363 93.9589 113.203 91.9987 113.203 90.0386C113.203 87.9385 112.363 85.9784 110.963 84.5783ZM27.088 86.1184C6.78444 65.8172 5.3842 34.0353 23.4474 12.194L45.0112 33.7553L31.9889 46.9161C30.0286 48.8762 28.9084 51.5364 28.9084 54.4765C28.9084 57.2767 30.0286 59.9368 31.9889 62.037L51.1723 81.2181C53.1327 83.1782 55.9331 84.2983 58.7336 84.2983C61.5341 84.2983 64.1946 83.1782 66.295 81.2181L79.3173 68.1973L100.881 89.7586C79.1773 107.68 47.2516 106.42 27.088 86.1184Z" fill="white"/>
</svg>
