<svg width="107" height="109" viewBox="0 0 107 109" fill="none" xmlns="http://www.w3.org/2000/svg">
<path d="M0.179932 108.014L7.87405 79.437C3.56068 71.473 1.22913 62.6892 1.22913 53.7883C1.22913 24.6262 24.8944 0.968506 53.8056 0.968506C82.8334 0.968506 106.382 24.7433 106.382 53.7883C106.382 82.9505 82.7168 106.608 53.8056 106.608C45.0623 106.608 36.4355 104.383 28.7414 100.167L0.179932 108.014ZM30.2569 89.509L32.0056 90.5631C38.6505 94.5451 46.1115 96.6532 53.8056 96.6532C77.3543 96.6532 96.473 77.446 96.473 53.7883C96.473 30.1307 77.3543 10.9235 53.8056 10.9235C30.2569 10.9235 11.1382 30.1307 11.1382 53.7883C11.1382 61.6352 13.3532 69.2478 17.4334 76.0406L18.4826 77.9145L14.2858 93.8424L30.2569 89.509Z" fill="white"/>
<path d="M73.5073 61.1667C71.2923 59.8784 68.4944 58.3559 65.9297 59.41C63.9479 60.2298 62.6655 63.2748 61.4998 64.9145C60.8003 65.7343 60.1008 65.8514 59.0516 65.5001C51.7073 62.455 45.995 57.5361 42.0313 50.7433C41.3318 49.6892 41.4484 48.8694 42.2645 47.9325C43.5468 46.5271 45.0623 44.8874 45.4121 42.8964C45.7618 40.9055 44.8292 38.6802 44.0131 36.9235C42.9639 34.6982 41.7982 31.5361 39.5832 30.2478C37.6014 29.0766 34.9201 29.7793 33.0548 31.1847C29.9072 33.7613 28.3917 37.7433 28.5083 41.7253C28.5083 42.8964 28.6249 43.9505 28.9746 45.1217C29.5575 47.6983 30.8399 50.1577 32.1222 52.5C33.1714 54.2568 34.2206 56.0136 35.503 57.6532C39.4666 63.0406 44.3629 67.7253 49.9586 71.1217C52.7565 72.8784 55.7875 74.401 58.9351 75.455C62.4324 76.6262 65.58 77.7973 69.427 77.0946C73.3907 76.2748 77.3543 73.8154 78.9864 69.9505C79.4527 68.7793 79.6859 67.491 79.4527 66.3199C78.8698 63.8604 75.4891 62.3379 73.5073 61.1667Z" fill="white"/>
</svg>
